Coordinates
version=1
nRows=37
nColumns=38
inDegrees=no

Units are S.I. units (second, meters, Newtons, ...)
If the header above contains a line with 'inDegrees', this indicates whether rotational values are in degrees (yes) or radians (no).

endheader
time	pelvis_tilt	pelvis_list	pelvis_rotation	pelvis_tx	pelvis_ty	pelvis_tz	hip_flexion_r	hip_adduction_r	hip_rotation_r	knee_angle_r	ankle_angle_r	subtalar_angle_r	mtp_angle_r	hip_flexion_l	hip_adduction_l	hip_rotation_l	knee_angle_l	ankle_angle_l	subtalar_angle_l	mtp_angle_l	lumbar_extension	lumbar_bending	lumbar_rotation	arm_flex_r	arm_add_r	arm_rot_r	elbow_flex_r	pro_sup_r	wrist_flex_r	wrist_dev_r	arm_flex_l	arm_add_l	arm_rot_l	elbow_flex_l	pro_sup_l	wrist_flex_l	wrist_dev_l
135	2.77938	1.44159	1.23584	0.951431	-0.370291	1.03735	0.395349	0.0274152	0.00847498	0.2788	-0.240534	0	0	0.0354202	-0.0729249	-0.572792	0.129182	-0.332483	0	0	-0.149912	-0.0606189	-0.163519	-0.291104	-0.0546168	0.297285	0.25143	1.5708	0	0	-0.229657	-0.447642	0.0207219	0.692576	1.06686	0	0
135.01	2.78907	1.44045	1.2324	0.950525	-0.374213	1.03703	0.395344	0.0247256	0.0141222	0.246937	-0.256992	0	0	0.031302	-0.0720733	-0.571165	0.125109	-0.332089	0	0	-0.146864	-0.0573841	-0.166181	-0.281907	-0.0512863	0.33626	0.240958	1.5708	0	0	-0.221229	-0.446899	0.0325777	0.695653	1.07074	0	0
135.02	2.77843	1.43597	1.25016	0.949424	-0.378178	1.03653	0.399108	0.0199048	0.0212682	0.214598	-0.283623	0	0	0.0315077	-0.0696479	-0.567387	0.120662	-0.332256	0	0	-0.141185	-0.0569864	-0.164258	-0.294747	-0.0363059	0.00209006	0.242697	1.5708	0	0	-0.209912	-0.448577	0.0509803	0.700911	1.07417	0	0
135.03	2.78822	1.43542	1.2482	0.948507	-0.382156	1.036	0.397455	0.015474	0.0287072	0.181707	-0.308652	0	0	0.0273422	-0.0691414	-0.565141	0.117851	-0.330573	0	0	-0.136463	-0.0525075	-0.170088	-0.271225	-0.0450819	0.373415	0.235502	1.5708	0	0	-0.203555	-0.447203	0.0654346	0.703874	1.07494	0	0
135.04	2.78996	1.43349	1.25637	0.947494	-0.386124	1.03544	0.396802	0.00939833	0.0379097	0.148602	-0.33005	0	0	0.0254484	-0.0681764	-0.559065	0.11531	-0.329937	0	0	-0.132115	-0.0496791	-0.173149	-0.264427	-0.0412302	0.39664	0.228994	1.5708	0	0	-0.19512	-0.446496	0.0790321	0.70987	1.08206	0	0
135.05	2.79304	1.43162	1.26468	0.946485	-0.390008	1.03487	0.395145	0.0024594	0.0493594	0.11447	-0.358679	0	0	0.0239691	-0.067575	-0.551021	0.113232	-0.328916	0	0	-0.12816	-0.0467122	-0.176657	-0.255881	-0.0369679	0.421867	0.220414	1.5708	0	0	-0.186312	-0.44682	0.0952286	0.716845	1.08898	0	0
135.06	2.78707	1.42885	1.28137	0.945345	-0.393919	1.03413	0.395185	-0.00604817	0.0613288	0.0823622	-0.383296	0	0	0.0236707	-0.0660745	-0.544421	0.111265	-0.327925	0	0	-0.122763	-0.044887	-0.178303	-0.249764	-0.0341824	0.435196	0.218148	1.5708	0	0	-0.177333	-0.446852	0.111718	0.724242	1.0977	0	0
135.07	2.77935	1.42633	1.29987	0.944068	-0.397925	1.03331	0.395656	-0.0156382	0.0723454	0.0537573	-0.407431	0	0	0.0230611	-0.0644499	-0.538761	0.109453	-0.326339	0	0	-0.117467	-0.0432885	-0.178833	-0.245042	-0.0318923	0.437151	0.21789	1.5708	0	0	-0.167831	-0.44663	0.129318	0.731502	1.10763	0	0
135.08	2.77108	1.42333	1.31998	0.94266	-0.402	1.03239	0.397349	-0.0255503	0.079984	0.0297955	-0.428029	0	0	0.0230709	-0.0631714	-0.532026	0.108134	-0.324471	0	0	-0.111268	-0.0415896	-0.179236	-0.240996	-0.0297769	0.432737	0.218542	1.5708	0	0	-0.157633	-0.446411	0.149067	0.737566	1.11833	0	0
135.09	2.76717	1.42192	1.33494	0.941194	-0.406092	1.03158	0.398024	-0.0348992	0.0865782	0.00994625	-0.441671	0	0	0.0210942	-0.0622235	-0.527868	0.107074	-0.323533	0	0	-0.107117	-0.0395797	-0.177952	-0.235921	-0.0284979	0.427523	0.219357	1.5708	0	0	-0.146536	-0.445202	0.168477	0.743222	1.12923	0	0
135.1	2.76655	1.4217	1.34615	0.939652	-0.410167	1.03087	0.39867	-0.0435484	0.0893176	0	-0.448259	0	0	0.0177086	-0.0618424	-0.526412	0.10626	-0.322909	0	0	-0.104647	-0.0374407	-0.176089	-0.229787	-0.0283427	0.422659	0.221017	1.5708	0	0	-0.136044	-0.442602	0.184164	0.749427	1.13854	0	0
135.11	2.76072	1.42153	1.36284	0.937939	-0.414386	1.03018	0.400427	-0.0526196	0.0887864	0	-0.45474	0	0	0.0140152	-0.0604834	-0.522677	0.104554	-0.32205	0	0	-0.101465	-0.0362516	-0.173301	-0.224819	-0.0281567	0.407941	0.224088	1.5708	0	0	-0.12444	-0.440745	0.204023	0.753942	1.15163	0	0
135.12	2.75848	1.42225	1.37619	0.936119	-0.418489	1.02959	0.401469	-0.0606589	0.0870147	0	-0.459584	0	0	0.00928303	-0.05956	-0.516008	0.102615	-0.32097	0	0	-0.0998218	-0.0348268	-0.17015	-0.219627	-0.0287757	0.387457	0.229799	1.5708	0	0	-0.113104	-0.4387	0.222516	0.759276	1.16431	0	0
135.13	2.76094	1.42372	1.38501	0.934142	-0.422526	1.02899	0.401701	-0.0676638	0.0856137	0	-0.463187	0	0	0.00370979	-0.0597317	-0.509329	0.101348	-0.319903	0	0	-0.0993107	-0.0324324	-0.166868	-0.212713	-0.0297953	0.375698	0.232986	1.5708	0	0	-0.102509	-0.435883	0.239098	0.764923	1.17535	0	0
135.14	2.76423	1.42418	1.39463	0.932171	-0.426527	1.0282	0.402796	-0.0749016	0.084287	0	-0.467114	0	0	-0.000280455	-0.0608575	-0.504765	0.100824	-0.318701	0	0	-0.0978399	-0.0295537	-0.164438	-0.204808	-0.0313193	0.369258	0.234633	1.5708	0	0	-0.0919627	-0.433339	0.256591	0.770478	1.18748	0	0
135.15	2.7609	1.42221	1.41204	0.930256	-0.43044	1.02713	0.406556	-0.0832689	0.0861671	0	-0.470992	0	0	-0.000715586	-0.0620299	-0.503638	0.101349	-0.317305	0	0	-0.0934401	-0.0275037	-0.163156	-0.19709	-0.034019	0.362597	0.237798	1.5708	0	0	-0.0823948	-0.430927	0.273472	0.775937	1.20001	0	0
135.16	2.75754	1.42066	1.42897	0.928098	-0.434336	1.02607	0.409265	-0.0914275	0.092073	0	-0.47401	0	0	-0.00179408	-0.063099	-0.499017	0.101831	-0.3156	0	0	-0.0891101	-0.0257205	-0.161544	-0.188756	-0.0375359	0.35655	0.240969	1.5708	0	0	-0.0736816	-0.428189	0.288994	0.780704	1.21183	0	0
135.17	2.75763	1.42027	1.44265	0.925738	-0.438198	1.0251	0.409652	-0.0990274	0.100262	0	-0.476127	0	0	-0.00426219	-0.0645791	-0.491302	0.102343	-0.31405	0	0	-0.086208	-0.0236705	-0.159868	-0.179622	-0.0415475	0.351714	0.243542	1.5708	0	0	-0.0653154	-0.425209	0.303388	0.785047	1.22278	0	0
135.18	2.75785	1.42013	1.45668	0.923153	-0.442175	1.02409	0.408587	-0.106522	0.108915	0	-0.477613	0	0	-0.00711855	-0.0662392	-0.48316	0.10252	-0.312404	0	0	-0.0830618	-0.0217664	-0.158348	-0.170364	-0.0458531	0.347049	0.245221	1.5708	0	0	-0.0574869	-0.421922	0.31739	0.788178	1.23356	0	0
135.19	2.75525	1.42066	1.47292	0.920338	-0.446128	1.02311	0.406561	-0.113971	0.118192	0	-0.478787	0	0	-0.0107867	-0.0677417	-0.476114	0.102756	-0.310683	0	0	-0.0804508	-0.0206642	-0.156399	-0.160565	-0.0504635	0.343125	0.246599	1.5708	0	0	-0.0502314	-0.418532	0.330332	0.790508	1.24361	0	0
135.2	2.75147	1.42169	1.4901	0.917302	-0.450074	1.02216	0.403634	-0.12108	0.127266	0	-0.479453	0	0	-0.0150679	-0.0694005	-0.469935	0.103084	-0.309058	0	0	-0.0783452	-0.0198989	-0.15446	-0.150332	-0.0556391	0.339931	0.247839	1.5708	0	0	-0.0439512	-0.415019	0.341959	0.792309	1.25258	0	0
135.21	2.74801	1.42275	1.50741	0.914045	-0.454127	1.02121	0.399678	-0.127769	0.135259	0	-0.479161	0	0	-0.0195703	-0.0714552	-0.4638	0.103241	-0.307626	0	0	-0.0760851	-0.0191808	-0.1531	-0.140028	-0.0612136	0.33771	0.248562	1.5708	0	0	-0.0390068	-0.41136	0.352031	0.793665	1.26032	0	0
135.22	2.74572	1.42407	1.52368	0.910538	-0.458219	1.02029	0.394668	-0.133649	0.142174	0	-0.477206	0	0	-0.0244672	-0.0740855	-0.457616	0.103432	-0.306408	0	0	-0.0735145	-0.0184904	-0.15164	-0.129528	-0.0668307	0.336569	0.248148	1.5708	0	0	-0.034822	-0.40754	0.361362	0.79395	1.26703	0	0
135.23	2.74331	1.42594	1.53982	0.906768	-0.462318	1.01943	0.388264	-0.138601	0.147785	0	-0.472223	0	0	-0.0300184	-0.0770984	-0.451078	0.103676	-0.305161	0	0	-0.0710155	-0.0178697	-0.149781	-0.118513	-0.0723101	0.336014	0.245993	1.5708	0	0	-0.0308553	-0.404062	0.371692	0.792973	1.27356	0	0
135.24	2.73815	1.42876	1.55789	0.902748	-0.466412	1.01863	0.380327	-0.142669	0.151933	0	-0.466957	0	0	-0.0366659	-0.0801136	-0.446216	0.104179	-0.304297	0	0	-0.0695306	-0.0178307	-0.147098	-0.107148	-0.0777732	0.335877	0.242983	1.5708	0	0	-0.0279689	-0.400894	0.380708	0.79241	1.2782	0	0
135.25	2.72669	1.43393	1.58136	0.898507	-0.470581	1.01797	0.369082	-0.145966	0.153393	0	-0.462101	0	0	-0.0463569	-0.082302	-0.443282	0.103986	-0.303753	0	0	-0.0708089	-0.0187013	-0.142921	-0.0950342	-0.0827072	0.335272	0.237844	1.5708	0	0	-0.0246809	-0.399077	0.392118	0.792253	1.28209	0	0
135.26	2.72019	1.43904	1.60101	0.894034	-0.474987	1.01727	0.356438	-0.146851	0.149091	0.000751629	-0.461102	0	0	-0.0559148	-0.0859736	-0.441512	0.104254	-0.303898	0	0	-0.0714842	-0.0187932	-0.139794	-0.0840076	-0.0882493	0.336178	0.233035	1.5708	0	0	-0.0231608	-0.397503	0.402277	0.792414	1.28379	0	0
135.27	2.71724	1.44266	1.61868	0.889449	-0.479393	1.0165	0.345171	-0.146071	0.141097	0.00353147	-0.46191	0	0	-0.0629232	-0.0908602	-0.437788	0.105864	-0.304354	0	0	-0.0698749	-0.0184107	-0.13804	-0.0737611	-0.0934917	0.337145	0.227881	1.5708	0	0	-0.022233	-0.396105	0.412419	0.791062	1.28462	0	0
135.28	2.71921	1.44447	1.6312	0.884778	-0.483551	1.01577	0.337477	-0.143867	0.133519	0.00733474	-0.460436	0	0	-0.0668649	-0.0967855	-0.43338	0.108806	-0.304684	0	0	-0.0663146	-0.0174344	-0.135839	-0.064004	-0.0988075	0.334635	0.223413	1.5708	0	0	-0.0206327	-0.3945	0.423265	0.787183	1.2852	0	0
135.29	2.73164	1.44619	1.63082	0.880027	-0.487246	1.01538	0.333429	-0.139309	0.129023	0.0157964	-0.450854	0	0	-0.0696237	-0.104048	-0.429974	0.113176	-0.304927	0	0	-0.0639387	-0.0147138	-0.130678	-0.0531169	-0.104567	0.330133	0.218969	1.5708	0	0	-0.016968	-0.392137	0.43528	0.780779	1.2855	0	0
135.3	2.76068	1.44879	1.61053	0.875216	-0.490517	1.01555	0.331337	-0.131501	0.128494	0.0288805	-0.436614	0	0	-0.0725075	-0.113012	-0.42762	0.118778	-0.305614	0	0	-0.0641351	-0.00914724	-0.121529	-0.0410791	-0.111314	0.323971	0.215007	1.5708	0	0	-0.010622	-0.388171	0.448407	0.771028	1.28602	0	0
135.31	2.80868	1.4496	1.57034	0.870519	-0.493686	1.01601	0.331573	-0.121463	0.130981	0.0440699	-0.42241	0	0	-0.0725916	-0.124262	-0.426763	0.126178	-0.306922	0	0	-0.0629116	-0.000411495	-0.110408	-0.0298436	-0.119371	0.314922	0.212079	1.5708	0	0	-0.00253467	-0.381616	0.462441	0.756585	1.28745	0	0
135.32	2.86024	1.44904	1.52629	0.865961	-0.496686	1.01662	0.332525	-0.111636	0.137268	0.0592687	-0.409563	0	0	-0.0699966	-0.136279	-0.427645	0.136249	-0.308335	0	0	-0.0613771	0.00873147	-0.0999999	-0.0187817	-0.127906	0.303528	0.210896	1.5708	0	0	0.00397741	-0.374784	0.473441	0.742746	1.28966	0	0
135.33	2.90059	1.44723	1.49339	0.861426	-0.499509	1.01723	0.333913	-0.103994	0.144365	0.0734858	-0.397389	0	0	-0.0642343	-0.147505	-0.428526	0.149892	-0.309396	0	0	-0.0591957	0.015916	-0.0912881	-0.00800802	-0.136111	0.290798	0.211434	1.5708	0	0	0.00756488	-0.369326	0.480516	0.731682	1.29263	0	0
135.34	2.93132	1.44429	1.47183	0.856903	-0.502202	1.01775	0.335159	-0.0987161	0.147417	0.0854443	-0.385875	0	0	-0.0547963	-0.158344	-0.424372	0.167342	-0.309633	0	0	-0.0558809	0.02113	-0.0860942	0.00288024	-0.1433	0.280873	0.212614	1.5708	0	0	0.00798907	-0.365786	0.483707	0.723561	1.29532	0	0
135.35	2.95685	1.44256	1.45651	0.852413	-0.505021	1.01831	0.333409	-0.0951232	0.143193	0.0933979	-0.376081	0	0	-0.0446983	-0.169188	-0.417548	0.188403	-0.309116	0	0	-0.0533624	0.0248565	-0.0837878	0.0142758	-0.150012	0.277858	0.213791	1.5708	0	0	0.0054187	-0.363615	0.483408	0.717906	1.297	0	0
135.36	2.98133	1.44131	1.44373	0.848203	-0.50776	1.01883	0.329776	-0.0924196	0.134052	0.0975458	-0.3682	0	0	-0.0317883	-0.181901	-0.415941	0.215926	-0.308195	0	0	-0.0513699	0.0283339	-0.0839384	0.0259535	-0.156559	0.27979	0.215999	1.5708	0	0	0.00179892	-0.361917	0.481186	0.71315	1.29759	0	0
